<?xml version="1.0" standalone="no"?><!DOCTYPE svg PUBLIC "-//W3C//DTD SVG 1.1//EN" "http://www.w3.org/Graphics/SVG/1.1/DTD/svg11.dtd"><svg t="1578031109086" class="icon" viewBox="0 0 1024 1024" version="1.1" xmlns="http://www.w3.org/2000/svg" p-id="14174" xmlns:xlink="http://www.w3.org/1999/xlink" width="200" height="200"><defs><style type="text/css"></style></defs><path d="M317.978947 266.778947c43.115789 0 78.147368-29.642105 86.231579-70.063158h161.684211c10.778947 0 18.863158-8.084211 18.863158-18.863157S576.673684 161.684211 565.894737 161.684211h-164.378948c-8.084211-40.421053-43.115789-70.063158-86.231578-70.063158-48.505263 0-88.926316 40.421053-88.926316 88.926315s43.115789 86.231579 91.621052 86.231579z m0-137.431579c26.947368 0 51.2 21.557895 51.2 51.2s-21.557895 51.2-51.2 51.2-51.2-24.252632-51.2-51.2 21.557895-51.2 51.2-51.2zM684.463158 264.084211c8.084211 2.694737 13.473684 2.694737 21.557895 2.694736 8.084211 0 18.863158-2.694737 26.947368-5.389473l83.536842 140.126315c2.694737 5.389474 10.778947 8.084211 16.168421 8.084211 2.694737 0 5.389474 0 10.778948-2.694737 8.084211-5.389474 10.778947-16.168421 5.389473-26.947368l-83.536842-140.126316c13.473684-10.778947 21.557895-26.947368 24.252632-43.11579 8.084211-18.863158 5.389474-40.421053-8.084211-61.978947s-29.642105-35.031579-53.894737-40.421053c-21.557895-5.389474-45.810526-2.694737-67.368421 8.084211s-35.031579 29.642105-40.421052 53.894737c-5.389474 21.557895-2.694737 45.810526 8.08421 67.368421s35.031579 35.031579 56.589474 40.421053z m-26.947369-97.010527c2.694737-13.473684 10.778947-24.252632 24.252632-29.642105 8.084211-5.389474 16.168421-8.084211 24.252632-8.084211 5.389474 0 8.084211 0 13.473684 2.694737 13.473684 2.694737 24.252632 10.778947 29.642105 24.252632 8.084211 10.778947 8.084211 24.252632 5.389474 37.726316-2.694737 13.473684-10.778947 24.252632-24.252632 29.642105-10.778947 8.084211-24.252632 8.084211-37.726316 5.389474-13.473684-2.694737-24.252632-10.778947-29.642105-24.252632s-8.084211-24.252632-5.389474-37.726316zM945.852632 436.547368c-40.421053-24.252632-94.315789-10.778947-121.263158 32.336843-10.778947 21.557895-16.168421 43.115789-8.084211 67.368421 5.389474 16.168421 13.473684 29.642105 24.252632 43.115789l-83.536842 140.126316c-5.389474 8.084211-2.694737 21.557895 5.389473 26.947368 2.694737 2.694737 5.389474 2.694737 10.778948 2.694737s13.473684-2.694737 16.168421-8.08421l83.536842-140.126316c8.084211 2.694737 18.863158 5.389474 26.947368 5.389473 29.642105 0 59.284211-16.168421 75.452632-43.115789 26.947368-48.505263 10.778947-102.4-29.642105-126.652632zM943.157895 538.947368c-13.473684 24.252632-45.810526 32.336842-67.368421 18.863158-24.252632-13.473684-32.336842-45.810526-18.863158-67.368421 13.473684-24.252632 45.810526-32.336842 67.368421-18.863158 26.947368 13.473684 35.031579 43.115789 18.863158 67.368421zM706.021053 757.221053c-43.115789 0-78.147368 29.642105-86.231579 70.063158h-161.684211c-10.778947 0-18.863158 8.084211-18.863158 18.863157s8.084211 16.168421 18.863158 16.168421h164.378948c8.084211 40.421053 43.115789 70.063158 86.231578 70.063158 48.505263 0 88.926316-40.421053 88.926316-88.926315s-43.115789-86.231579-91.621052-86.231579z m0 137.431579c-26.947368 0-51.2-21.557895-51.2-51.2 0-26.947368 21.557895-51.2 51.2-51.2s51.2 21.557895 51.2 51.2c0 26.947368-21.557895 51.2-51.2 51.2zM291.031579 759.915789L207.494737 619.789474c-5.389474-8.084211-16.168421-10.778947-26.947369-5.389474-8.084211 5.389474-10.778947 16.168421-5.389473 26.947368L258.694737 781.473684c-29.642105 26.947368-37.726316 72.757895-16.168421 107.789474 16.168421 26.947368 45.810526 43.115789 75.452631 43.115789 16.168421 0 29.642105-2.694737 43.11579-10.778947 40.421053-24.252632 56.589474-78.147368 32.336842-121.263158-21.557895-37.726316-64.673684-51.2-102.4-40.421053z m51.2 126.652632c-24.252632 13.473684-53.894737 5.389474-67.368421-18.863158-13.473684-24.252632-5.389474-53.894737 18.863158-67.368421 24.252632-13.473684 53.894737-5.389474 67.368421 18.863158 13.473684 24.252632 5.389474 53.894737-18.863158 67.368421zM199.410526 555.115789c10.778947-18.863158 16.168421-43.115789 8.084211-67.368421-5.389474-16.168421-13.473684-29.642105-24.252632-43.115789l83.536842-140.126316c5.389474-8.084211 2.694737-21.557895-8.08421-26.947368-8.084211-5.389474-21.557895-2.694737-26.947369 8.08421l-83.536842 140.126316c-16.168421-5.389474-32.336842-5.389474-48.505263-2.694737-21.557895 5.389474-40.421053 21.557895-53.894737 40.421053-10.778947 21.557895-16.168421 43.115789-8.08421 67.368421 5.389474 21.557895 21.557895 40.421053 40.421052 53.894737 13.473684 8.084211 29.642105 10.778947 43.11579 10.778947 8.084211 0 16.168421 0 21.557895-2.694737 24.252632-2.694737 43.115789-16.168421 56.589473-37.726316z m-32.336842-18.863157c-5.389474 10.778947-18.863158 18.863158-29.642105 24.252631-13.473684 2.694737-26.947368 2.694737-37.726316-5.389474-26.947368-16.168421-35.031579-45.810526-18.863158-70.063157 5.389474-10.778947 18.863158-18.863158 29.642106-24.252632 5.389474 0 8.084211-2.694737 13.473684-2.694737 8.084211 0 16.168421 2.694737 24.252631 8.084211 10.778947 5.389474 18.863158 18.863158 24.252632 29.642105 2.694737 16.168421 0 29.642105-5.389474 40.421053zM514.694737 288.336842c-2.694737 0-2.694737 0 0 0-123.957895 0-223.663158 99.705263-223.663158 223.663158 0 123.957895 99.705263 223.663158 223.663158 223.663158 123.957895 0 223.663158-99.705263 223.663158-223.663158 0-121.263158-99.705263-220.968421-223.663158-223.663158zM665.6 619.789474c-13.473684-8.084211-32.336842-16.168421-48.505263-21.557895 5.389474-24.252632 8.084211-48.505263 8.08421-67.368421h72.757895c-2.694737 32.336842-13.473684 61.978947-32.336842 88.926316z m-336.842105-88.926316h72.757894c0 18.863158 2.694737 40.421053 8.084211 67.368421-18.863158 5.389474-35.031579 10.778947-48.505263 21.557895-16.168421-26.947368-29.642105-56.589474-32.336842-88.926316z m32.336842-123.957895c13.473684 8.084211 32.336842 16.168421 51.2 21.557895-5.389474 24.252632-8.084211 48.505263-8.084211 64.673684h-72.757894c0-29.642105 10.778947-59.284211 29.642105-86.231579z m134.736842-2.694737c-10.778947 0-24.252632-2.694737-37.726316-2.694737 8.084211-21.557895 18.863158-43.115789 37.726316-59.28421V404.210526z m0 37.726316v53.894737h-53.894737c0-16.168421 2.694737-35.031579 8.084211-56.589474 13.473684 0 29.642105 0 45.810526 2.694737z m-53.894737 88.926316h53.894737v53.894737c-13.473684 0-29.642105 2.694737-45.810526 5.389473-5.389474-21.557895-8.084211-43.115789-8.084211-59.28421z m53.894737 94.315789v59.284211c-16.168421-13.473684-26.947368-35.031579-35.031579-56.589474 10.778947-2.694737 21.557895-2.694737 35.031579-2.694737z m37.726316 0c10.778947 0 24.252632 2.694737 35.031579 2.694737-8.084211 21.557895-18.863158 43.115789-35.031579 56.589474v-59.284211z m0-37.726315v-56.589474h53.894737c0 16.168421-2.694737 37.726316-8.084211 59.28421-18.863158 0-35.031579-2.694737-45.810526-2.694736z m53.894737-94.31579h-53.894737v-53.894737c13.473684 0 29.642105-2.694737 45.810526-5.389473 5.389474 24.252632 5.389474 45.810526 8.084211 59.28421z m-53.894737-91.621053v-61.978947c16.168421 13.473684 29.642105 35.031579 37.726316 56.589474-13.473684 5.389474-26.947368 5.389474-37.726316 5.389473z m48.505263-61.978947c21.557895 8.084211 43.115789 21.557895 61.978947 37.726316-8.084211 5.389474-21.557895 10.778947-35.031579 13.473684-8.084211-16.168421-16.168421-35.031579-26.947368-51.2z m-161.684211 53.894737c-13.473684-2.694737-26.947368-8.084211-35.031579-13.473684 16.168421-16.168421 37.726316-29.642105 61.978948-37.726316-10.778947 13.473684-21.557895 32.336842-26.947369 51.2z m0 242.526316c5.389474 18.863158 13.473684 35.031579 24.252632 51.2-21.557895-8.084211-43.115789-21.557895-59.284211-37.726316 10.778947-5.389474 21.557895-10.778947 35.031579-13.473684z m185.936842 0c13.473684 2.694737 26.947368 8.084211 35.031579 13.473684-16.168421 16.168421-37.726316 29.642105-59.28421 37.726316 10.778947-16.168421 18.863158-35.031579 24.252631-51.2z m18.863158-142.821053c0-16.168421-2.694737-40.421053-8.08421-64.673684 18.863158-5.389474 37.726316-10.778947 51.2-21.557895 16.168421 24.252632 29.642105 53.894737 32.336842 86.231579h-75.452632z" fill="#2c2c2c" p-id="14175"></path></svg>